<?xml version="1.0" encoding="UTF-8" standalone="no"?><!DOCTYPE svg PUBLIC "-//W3C//DTD SVG 1.1//EN" "http://www.w3.org/Graphics/SVG/1.1/DTD/svg11.dtd"><svg width="100%" height="100%" viewBox="0 0 61 19" version="1.1" xmlns="http://www.w3.org/2000/svg" xmlns:xlink="http://www.w3.org/1999/xlink" xml:space="preserve" xmlns:serif="http://www.serif.com/" style="fill-rule:evenodd;clip-rule:evenodd;stroke-linejoin:round;stroke-miterlimit:2;"><rect id="Artboard3" x="0" y="0" width="60.112" height="19" style="fill:none;"/><clipPath id="_clip1"><rect x="0" y="0" width="60.112" height="19"/></clipPath><g clip-path="url(#_clip1)"><rect id="Artboard2" x="-11" y="0" width="71.114" height="19" style="fill:none;"/><g><g><path d="M40.501,16.243l0.91,-0.778c0.981,1.147 2.51,1.82 4.136,1.841l0.078,0.001c1.629,-0 3.168,-0.656 4.166,-1.788l0.047,-0.054l0.91,0.778c-1.213,1.418 -3.108,2.261 -5.123,2.261l-0.095,-0.001c-1.98,-0.026 -3.835,-0.864 -5.029,-2.26Zm12.289,-1.85c0.137,0.103 0.286,0.188 0.444,0.255c1.067,0.449 2.299,-0.052 2.748,-1.12c0.45,-1.067 -0.052,-2.298 -1.119,-2.748c-1.068,-0.45 -2.299,0.051 -2.749,1.12l0.851,0.358c0.252,-0.598 0.941,-0.879 1.539,-0.627c0.598,0.252 0.879,0.941 0.627,1.539c-0.251,0.598 -0.941,0.879 -1.539,0.627c-0.088,-0.037 -0.172,-0.085 -0.248,-0.143l-0.554,0.739Zm-14.343,0c-0.137,0.103 -0.286,0.188 -0.443,0.255c-1.068,0.449 -2.299,-0.052 -2.749,-1.12c-0.449,-1.067 0.052,-2.298 1.12,-2.748c1.068,-0.45 2.298,0.051 2.748,1.12l-0.851,0.358c-0.252,-0.598 -0.941,-0.879 -1.539,-0.627c-0.598,0.252 -0.879,0.941 -0.627,1.539c0.252,0.598 0.941,0.879 1.539,0.627c0.088,-0.037 0.172,-0.085 0.249,-0.143l0.553,0.739Zm8.296,0.29c-1.13,-1.13 -1.13,-2.962 0,-4.093c1.13,-1.129 2.964,-1.129 4.093,0c1.13,1.131 1.13,2.963 0,4.093l-0.9,-0.9c0.633,-0.633 0.633,-1.659 -0,-2.292c-0.633,-0.633 -1.66,-0.633 -2.292,-0c-0.633,0.633 -0.633,1.659 -0,2.292l-0.901,0.9Zm-6.33,0c-1.13,-1.13 -1.13,-2.962 0,-4.093c1.13,-1.129 2.964,-1.129 4.093,0c1.13,1.131 1.13,2.963 -0,4.093l-0.9,-0.9c0.632,-0.633 0.632,-1.659 -0,-2.292c-0.633,-0.633 -1.66,-0.633 -2.292,-0c-0.633,0.633 -0.633,1.659 -0,2.292l-0.901,0.9Zm8.377,-2.484c-0.341,-0 -0.618,0.277 -0.618,0.618c-0,0.341 0.277,0.618 0.618,0.618c0.341,-0 0.618,-0.277 0.618,-0.618c-0,-0.341 -0.277,-0.618 -0.618,-0.618Zm-6.331,-0c-0.341,-0 -0.618,0.277 -0.618,0.618c0,0.341 0.277,0.618 0.618,0.618c0.341,-0 0.618,-0.277 0.618,-0.618c0,-0.341 -0.277,-0.618 -0.618,-0.618Zm4.041,-4.387c-0,-0.104 0.084,-0.188 0.188,-0.188l0.377,-0c0.104,-0 0.189,0.084 0.189,0.188l-0,1.031c-0,0.104 -0.085,0.188 -0.189,0.188l-0.377,0c-0.104,0 -0.188,-0.084 -0.188,-0.188l-0,-1.031Zm-1.252,0c-0,-0.104 0.084,-0.188 0.188,-0.188l0.377,-0c0.104,-0 0.189,0.084 0.189,0.188l-0,1.031c-0,0.104 -0.085,0.188 -0.189,0.188l-0.377,0c-0.104,0 -0.188,-0.084 -0.188,-0.188l-0,-1.031Zm-1.252,0c-0,-0.104 0.084,-0.188 0.188,-0.188l0.377,-0c0.104,-0 0.189,0.084 0.189,0.188l-0,1.031c-0,0.104 -0.085,0.188 -0.189,0.188l-0.377,0c-0.104,0 -0.188,-0.084 -0.188,-0.188l-0,-1.031Z" style="fill:#545454;"/><g><path d="M40.839,6.777l-1.542,-1.295c0.504,-0.578 0.626,-1.345 0.374,-2.159c-0.356,-1.15 -1.468,-1.839 -3.046,-1.351l-1.535,0.475l1.726,5.575l0.927,-0.286l-0.386,-1.249l0.608,-0.188c0.205,-0.064 0.389,-0.138 0.56,-0.227l1.256,1.033l1.058,-0.328Zm14.386,-4.646l-1.242,4.159l-1.156,-4.876l-1.102,-0.329l-1.671,5.592l0.93,0.278l1.218,-4.077l1.13,4.778l1.144,0.342l1.671,-5.592l-0.922,-0.275Zm-10.83,-1.635l-0.956,0.112l-0.915,2.91l-1.56,-2.621l-0.948,0.11l2.146,3.557l0.238,2.041l0.964,-0.113l-0.238,-2.04l1.269,-3.956Zm4.01,5.999l1.022,0.051l-1.773,-5.931l-1.004,-0.05l-2.4,5.725l1.03,0.051l0.334,-0.835l2.541,0.125l0.25,0.864Zm-11.284,-0.771l-0.868,-2.801l0.444,-0.137c1.356,-0.42 1.895,0.331 2.052,0.841c0.176,0.567 0.253,1.515 -0.955,1.889l-0.673,0.208Zm8.788,-0.96l1.158,-2.878l0.868,2.978l-2.026,-0.1Z" style="fill:#545454;fill-rule:nonzero;"/></g></g><path d="M3.965,11.352l-0,-4.774l3.161,-0l0,0.832l-2.152,0l0,1.138l1.942,-0l0,0.832l-1.942,-0l0,1.972l-1.009,0Z" style="fill:#545454;fill-rule:nonzero;"/><path d="M9.157,11.422c-0.369,0 -0.685,-0.075 -0.95,-0.225c-0.265,-0.15 -0.469,-0.363 -0.612,-0.639c-0.143,-0.275 -0.215,-0.602 -0.215,-0.98c0,-0.368 0.072,-0.692 0.215,-0.97c0.143,-0.278 0.344,-0.495 0.605,-0.65c0.26,-0.156 0.566,-0.233 0.917,-0.233c0.236,-0 0.456,0.037 0.661,0.113c0.204,0.075 0.383,0.188 0.536,0.339c0.153,0.151 0.272,0.34 0.358,0.568c0.085,0.227 0.128,0.494 0.128,0.798l0,0.273l-3.024,-0l0,-0.616l2.089,0c0,-0.143 -0.031,-0.269 -0.093,-0.38c-0.062,-0.11 -0.148,-0.197 -0.258,-0.26c-0.109,-0.062 -0.236,-0.094 -0.381,-0.094c-0.151,0 -0.284,0.035 -0.4,0.104c-0.115,0.069 -0.206,0.161 -0.271,0.277c-0.065,0.116 -0.099,0.245 -0.1,0.386l-0,0.585c-0,0.177 0.033,0.33 0.099,0.459c0.066,0.129 0.159,0.229 0.281,0.299c0.121,0.07 0.265,0.105 0.431,0.105c0.11,-0 0.211,-0.016 0.303,-0.047c0.092,-0.031 0.17,-0.078 0.235,-0.14c0.066,-0.062 0.115,-0.138 0.15,-0.228l0.918,0.06c-0.046,0.221 -0.142,0.413 -0.285,0.577c-0.144,0.164 -0.329,0.292 -0.555,0.383c-0.226,0.091 -0.487,0.136 -0.782,0.136Z" style="fill:#545454;fill-rule:nonzero;"/><path d="M11.448,11.352l0,-3.581l0.993,0l0,3.581l-0.993,0Zm0.501,-4.042c-0.147,-0 -0.274,-0.05 -0.38,-0.148c-0.105,-0.099 -0.158,-0.217 -0.158,-0.356c-0,-0.137 0.053,-0.254 0.158,-0.353c0.106,-0.099 0.232,-0.148 0.378,-0.148c0.149,-0 0.276,0.049 0.381,0.148c0.105,0.099 0.158,0.216 0.158,0.353c-0,0.139 -0.053,0.257 -0.158,0.356c-0.105,0.098 -0.231,0.148 -0.379,0.148Z" style="fill:#545454;fill-rule:nonzero;"/><path d="M15.139,7.771l-0,0.746l-2.157,0l0,-0.746l2.157,0Zm-1.667,-0.858l0.993,0l-0,3.339c-0,0.092 0.014,0.163 0.042,0.213c0.028,0.051 0.067,0.086 0.118,0.106c0.05,0.02 0.109,0.031 0.176,0.031c0.046,-0 0.093,-0.005 0.139,-0.013c0.047,-0.009 0.083,-0.015 0.108,-0.02l0.156,0.739c-0.05,0.015 -0.12,0.034 -0.21,0.055c-0.09,0.021 -0.2,0.034 -0.329,0.038c-0.239,0.009 -0.448,-0.022 -0.628,-0.095c-0.179,-0.073 -0.319,-0.187 -0.418,-0.341c-0.1,-0.154 -0.149,-0.348 -0.147,-0.583l-0,-3.469Z" style="fill:#545454;fill-rule:nonzero;"/><path d="M17.365,11.422c-0.362,0 -0.675,-0.077 -0.938,-0.232c-0.264,-0.154 -0.467,-0.37 -0.61,-0.648c-0.143,-0.277 -0.214,-0.599 -0.214,-0.966c-0,-0.37 0.071,-0.694 0.214,-0.971c0.143,-0.278 0.346,-0.494 0.61,-0.648c0.263,-0.155 0.576,-0.232 0.938,-0.232c0.362,-0 0.675,0.077 0.938,0.232c0.264,0.154 0.467,0.37 0.61,0.648c0.143,0.277 0.214,0.601 0.214,0.971c0,0.367 -0.071,0.689 -0.214,0.966c-0.143,0.278 -0.346,0.494 -0.61,0.648c-0.263,0.155 -0.576,0.232 -0.938,0.232Zm0.005,-0.769c0.164,-0 0.302,-0.047 0.412,-0.141c0.111,-0.094 0.194,-0.223 0.251,-0.386c0.057,-0.163 0.085,-0.349 0.085,-0.557c0,-0.208 -0.028,-0.394 -0.085,-0.557c-0.057,-0.164 -0.14,-0.293 -0.251,-0.387c-0.11,-0.095 -0.248,-0.143 -0.412,-0.143c-0.167,0 -0.306,0.048 -0.419,0.143c-0.112,0.094 -0.197,0.223 -0.254,0.387c-0.057,0.163 -0.085,0.349 -0.085,0.557c0,0.208 0.028,0.394 0.085,0.557c0.057,0.163 0.142,0.292 0.254,0.386c0.113,0.094 0.252,0.141 0.419,0.141Z" style="fill:#545454;fill-rule:nonzero;"/><path d="M21.298,12.695l-0,-4.924l0.979,0l0,0.602l0.044,-0c0.044,-0.097 0.107,-0.195 0.19,-0.295c0.083,-0.1 0.192,-0.184 0.327,-0.252c0.134,-0.067 0.302,-0.101 0.502,-0.101c0.261,-0 0.502,0.068 0.723,0.204c0.22,0.136 0.397,0.34 0.529,0.613c0.132,0.273 0.198,0.614 0.198,1.024c0,0.4 -0.064,0.737 -0.192,1.011c-0.128,0.274 -0.302,0.482 -0.522,0.623c-0.22,0.14 -0.466,0.21 -0.738,0.21c-0.193,0 -0.357,-0.031 -0.491,-0.095c-0.134,-0.064 -0.244,-0.144 -0.33,-0.241c-0.085,-0.098 -0.151,-0.196 -0.196,-0.295l-0.03,-0l0,1.916l-0.993,0Zm0.972,-3.133c0,0.213 0.03,0.398 0.089,0.557c0.059,0.158 0.144,0.282 0.256,0.369c0.112,0.088 0.248,0.132 0.408,0.132c0.162,0 0.298,-0.045 0.41,-0.134c0.112,-0.089 0.197,-0.214 0.256,-0.373c0.058,-0.159 0.087,-0.343 0.087,-0.551c0,-0.207 -0.029,-0.389 -0.086,-0.546c-0.058,-0.157 -0.142,-0.279 -0.254,-0.368c-0.112,-0.089 -0.25,-0.133 -0.413,-0.133c-0.162,0 -0.298,0.043 -0.409,0.128c-0.111,0.086 -0.196,0.207 -0.255,0.364c-0.059,0.157 -0.089,0.342 -0.089,0.555Z" style="fill:#545454;fill-rule:nonzero;"/><path d="M27.068,11.422c-0.362,0 -0.675,-0.077 -0.939,-0.232c-0.263,-0.154 -0.466,-0.37 -0.609,-0.648c-0.143,-0.277 -0.215,-0.599 -0.215,-0.966c0,-0.37 0.072,-0.694 0.215,-0.971c0.143,-0.278 0.346,-0.494 0.609,-0.648c0.264,-0.155 0.577,-0.232 0.939,-0.232c0.362,-0 0.675,0.077 0.938,0.232c0.264,0.154 0.467,0.37 0.61,0.648c0.143,0.277 0.214,0.601 0.214,0.971c0,0.367 -0.071,0.689 -0.214,0.966c-0.143,0.278 -0.346,0.494 -0.61,0.648c-0.263,0.155 -0.576,0.232 -0.938,0.232Zm0.004,-0.769c0.165,-0 0.303,-0.047 0.413,-0.141c0.11,-0.094 0.194,-0.223 0.251,-0.386c0.056,-0.163 0.085,-0.349 0.085,-0.557c-0,-0.208 -0.029,-0.394 -0.085,-0.557c-0.057,-0.164 -0.141,-0.293 -0.251,-0.387c-0.11,-0.095 -0.248,-0.143 -0.413,-0.143c-0.166,0 -0.305,0.048 -0.418,0.143c-0.113,0.094 -0.197,0.223 -0.254,0.387c-0.057,0.163 -0.085,0.349 -0.085,0.557c-0,0.208 0.028,0.394 0.085,0.557c0.057,0.163 0.141,0.292 0.254,0.386c0.113,0.094 0.252,0.141 0.418,0.141Z" style="fill:#545454;fill-rule:nonzero;"/><path d="M29.478,11.352l0,-3.581l0.963,0l0,0.625l0.037,0c0.066,-0.222 0.175,-0.39 0.329,-0.505c0.154,-0.114 0.331,-0.171 0.532,-0.171c0.049,0 0.103,0.003 0.161,0.009c0.057,0.007 0.108,0.015 0.151,0.026l0,0.881c-0.046,-0.014 -0.111,-0.026 -0.193,-0.037c-0.083,-0.011 -0.158,-0.016 -0.227,-0.016c-0.146,-0 -0.276,0.031 -0.39,0.094c-0.114,0.063 -0.204,0.15 -0.27,0.262c-0.066,0.112 -0.099,0.241 -0.099,0.387l-0,2.026l-0.994,0Z" style="fill:#545454;fill-rule:nonzero;"/></g></g></svg>