<?xml version="1.0" encoding="UTF-8" standalone="no"?><!DOCTYPE svg PUBLIC "-//W3C//DTD SVG 1.1//EN" "http://www.w3.org/Graphics/SVG/1.1/DTD/svg11.dtd"><svg width="100%" height="100%" viewBox="0 0 40 12" version="1.1" xmlns="http://www.w3.org/2000/svg" xmlns:xlink="http://www.w3.org/1999/xlink" xml:space="preserve" xmlns:serif="http://www.serif.com/" style="fill-rule:evenodd;clip-rule:evenodd;stroke-linejoin:round;stroke-miterlimit:2;"><rect id="Logo" x="0" y="0" width="40" height="12" style="fill:none;"/><g><g><g><path d="M19.572,7.796c0,-0.387 -0.002,-0.91 -0.006,-1.456c-0.009,-1.301 -0.023,-2.729 -0.023,-2.729c-0,-0.049 -0.039,-0.049 -0.039,-0.049l-1.896,0c0,0 -0.039,0 -0.039,0.049c0,0 0.026,1.287 0,2.701c-0.02,1.091 -0.944,1.052 -0.944,0.07l-0,-1.523c-0,-0.924 -0.648,-1.493 -1.444,-1.493c-0.55,-0 -1.08,0.383 -1.188,0.697c-0.089,0.265 0.658,-0.069 0.658,1.493l0,1.474c0,0.982 0.619,1.62 1.345,1.62c0.521,0 1.189,-0.118 1.593,-0.963c-0,0.344 0.015,0.502 -0,0.806c-0.037,0.737 -0.482,1.121 -1.269,1.121c-1.099,0 -1.384,-0.747 -1.62,-0.787c-0.108,-0.019 -0.206,0.069 -0.049,0.551c0.118,0.374 0.776,1.336 2.21,1.336c1.818,-0 2.77,-1.218 2.711,-2.918Zm6.557,-3.33c-0,0.387 0.002,0.91 0.006,1.456c0.009,1.301 0.023,2.729 0.023,2.729c0,0.049 0.04,0.049 0.04,0.049l1.895,0c-0,0 0.039,0 0.039,-0.049c0,-0 -0.026,-1.287 0,-2.701c0.02,-1.091 0.944,-1.052 0.944,-0.07l0,1.523c0,0.924 0.649,1.494 1.444,1.494c0.55,-0 1.08,-0.384 1.188,-0.698c0.089,-0.265 -0.658,0.069 -0.658,-1.493l0,-1.473c0,-0.983 -0.618,-1.621 -1.345,-1.621c-0.521,-0 -1.189,0.118 -1.593,0.963c0,-0.344 -0.015,-0.502 0,-0.806c0.037,-0.737 0.482,-1.121 1.269,-1.121c1.1,-0 1.384,0.747 1.62,0.787c0.108,0.019 0.206,-0.069 0.049,-0.551c-0.118,-0.374 -0.776,-1.335 -2.21,-1.335c-1.818,-0 -2.77,1.217 -2.711,2.917Zm-11.941,3.054c-0.835,-0.383 -1.493,-0.933 -1.866,-1.817c0.982,-0.403 1.375,-1.405 1.375,-2.162c-0,-1.444 -1.267,-2.201 -2.78,-2.25c-1.483,-0.049 -2.584,0.295 -2.584,0.295c0,-0 -0.049,-0 -0.049,0.049l0,6.799c0,0.059 0.049,0.059 0.049,0.059l2.064,0c-0,0 0.039,0 0.039,-0.059l0,-2.633l0.285,-0c0.137,1.7 0.697,3.085 2.239,2.908c0.934,-0.108 1.326,-1.159 1.228,-1.189Zm11.102,-1.09l0.067,-2.829c-0,-0.039 -0.039,-0.049 -0.039,-0.049l-1.964,0c-0,0 -0.049,0.01 -0.049,0.059l-0,0.677c-0.305,-0.549 -0.787,-0.932 -1.466,-0.932c-1.286,-0 -1.973,1.315 -1.973,2.662c-0,1.317 0.687,2.681 1.924,2.681c0.689,0 1.22,-0.471 1.554,-1.109c0.128,0.697 0.658,1.119 1.335,1.119c0.55,0 1.081,-0.383 1.179,-0.697c0.098,-0.266 -0.568,-0.02 -0.568,-1.582Zm-2.664,0.915c-0.482,-0 -0.737,-0.59 -0.737,-1.327c-0,-0.737 0.255,-1.337 0.737,-1.337c0.482,-0 0.738,0.6 0.738,1.337c-0,0.737 -0.256,1.327 -0.738,1.327Zm-12.19,-4.816c0.736,-0.118 1.217,0.275 1.217,1.012c0,0.717 -0.432,1.071 -1.217,1.071l0,-2.083Z" style="fill-rule:nonzero;"/></g><g><path d="M14.57,2.847l0,-1.54l1.019,0l0,0.269l-0.693,-0l-0,0.367l0.626,-0l-0,0.268l-0.626,-0l-0,0.636l-0.326,-0Z" style="fill-rule:nonzero;"/><path d="M15.808,2.847l0,-1.54l1.037,0l0,0.269l-0.712,-0l0,0.367l0.659,-0l-0,0.268l-0.659,-0l0,0.367l0.715,0l0,0.269l-1.04,-0Z" style="fill-rule:nonzero;"/><rect x="17.105" y="1.307" width="0.325" height="1.539" style="fill-rule:nonzero;"/><path d="M17.64,1.576l-0,-0.269l1.264,0l-0,0.269l-0.471,-0l-0,1.271l-0.322,-0l-0,-1.271l-0.471,-0Z" style="fill-rule:nonzero;"/><path d="M20.459,2.077c-0,0.168 -0.032,0.311 -0.095,0.428c-0.064,0.118 -0.15,0.208 -0.259,0.27c-0.109,0.062 -0.231,0.093 -0.367,0.093c-0.137,-0 -0.259,-0.031 -0.368,-0.093c-0.109,-0.063 -0.195,-0.153 -0.258,-0.27c-0.063,-0.118 -0.095,-0.261 -0.095,-0.428c0,-0.168 0.032,-0.311 0.095,-0.428c0.063,-0.118 0.149,-0.208 0.258,-0.27c0.109,-0.062 0.231,-0.093 0.368,-0.093c0.136,0 0.258,0.031 0.367,0.093c0.109,0.062 0.195,0.152 0.259,0.27c0.063,0.117 0.095,0.26 0.095,0.428Zm-0.33,0c-0,-0.109 -0.016,-0.2 -0.049,-0.275c-0.032,-0.075 -0.077,-0.131 -0.136,-0.17c-0.059,-0.038 -0.127,-0.058 -0.206,-0.058c-0.079,0 -0.147,0.02 -0.206,0.058c-0.058,0.039 -0.104,0.095 -0.136,0.17c-0.033,0.075 -0.049,0.166 -0.049,0.275c0,0.109 0.016,0.201 0.049,0.275c0.032,0.075 0.078,0.131 0.136,0.17c0.059,0.039 0.127,0.058 0.206,0.058c0.079,-0 0.147,-0.019 0.206,-0.058c0.059,-0.039 0.104,-0.095 0.136,-0.17c0.033,-0.074 0.049,-0.166 0.049,-0.275Z" style="fill-rule:nonzero;"/><path d="M21.19,2.847l0,-1.54l0.607,0c0.117,0 0.217,0.023 0.299,0.067c0.082,0.044 0.145,0.106 0.188,0.184c0.043,0.079 0.065,0.169 0.065,0.271c0,0.102 -0.022,0.192 -0.066,0.271c-0.044,0.078 -0.108,0.139 -0.191,0.182c-0.084,0.044 -0.185,0.066 -0.303,0.066l-0.387,-0l0,-0.261l0.335,-0c0.062,-0 0.114,-0.011 0.155,-0.033c0.041,-0.022 0.071,-0.052 0.091,-0.091c0.021,-0.039 0.031,-0.083 0.031,-0.134c-0,-0.051 -0.01,-0.096 -0.031,-0.134c-0.02,-0.038 -0.051,-0.068 -0.092,-0.09c-0.041,-0.021 -0.093,-0.031 -0.156,-0.031l-0.219,-0l-0,1.273l-0.326,-0Z" style="fill-rule:nonzero;"/><path d="M23.975,2.077c0,0.168 -0.031,0.311 -0.095,0.428c-0.063,0.118 -0.149,0.208 -0.258,0.27c-0.109,0.062 -0.231,0.093 -0.367,0.093c-0.137,-0 -0.26,-0.031 -0.369,-0.093c-0.108,-0.063 -0.194,-0.153 -0.257,-0.27c-0.063,-0.118 -0.095,-0.261 -0.095,-0.428c-0,-0.168 0.032,-0.311 0.095,-0.428c0.063,-0.118 0.149,-0.208 0.257,-0.27c0.109,-0.062 0.232,-0.093 0.369,-0.093c0.136,0 0.258,0.031 0.367,0.093c0.109,0.062 0.195,0.152 0.258,0.27c0.064,0.117 0.095,0.26 0.095,0.428Zm-0.329,0c-0,-0.109 -0.017,-0.2 -0.049,-0.275c-0.032,-0.075 -0.078,-0.131 -0.136,-0.17c-0.059,-0.038 -0.128,-0.058 -0.206,-0.058c-0.079,0 -0.148,0.02 -0.206,0.058c-0.059,0.039 -0.104,0.095 -0.137,0.17c-0.032,0.075 -0.048,0.166 -0.048,0.275c-0,0.109 0.016,0.201 0.048,0.275c0.033,0.075 0.078,0.131 0.137,0.17c0.058,0.039 0.127,0.058 0.206,0.058c0.078,-0 0.147,-0.019 0.206,-0.058c0.058,-0.039 0.104,-0.095 0.136,-0.17c0.032,-0.074 0.049,-0.166 0.049,-0.275Z" style="fill-rule:nonzero;"/><path d="M24.216,2.847l0,-1.54l0.607,0c0.117,0 0.216,0.021 0.298,0.062c0.083,0.042 0.146,0.1 0.189,0.176c0.043,0.075 0.065,0.164 0.065,0.265c-0,0.102 -0.022,0.19 -0.066,0.264c-0.044,0.073 -0.108,0.129 -0.191,0.168c-0.084,0.04 -0.185,0.059 -0.303,0.059l-0.407,0l0,-0.261l0.354,-0c0.063,-0 0.114,-0.009 0.155,-0.026c0.041,-0.017 0.072,-0.043 0.092,-0.077c0.021,-0.034 0.031,-0.076 0.031,-0.127c-0,-0.051 -0.01,-0.094 -0.031,-0.129c-0.02,-0.035 -0.051,-0.062 -0.092,-0.08c-0.041,-0.018 -0.093,-0.027 -0.156,-0.027l-0.22,-0l0,1.273l-0.325,-0Zm0.831,-0.701l0.383,0.701l-0.359,-0l-0.375,-0.701l0.351,0Z" style="fill-rule:nonzero;"/></g></g></g></svg>