<?xml version="1.0" encoding="UTF-8" standalone="no"?><!DOCTYPE svg PUBLIC "-//W3C//DTD SVG 1.1//EN" "http://www.w3.org/Graphics/SVG/1.1/DTD/svg11.dtd"><svg width="100%" height="100%" viewBox="0 0 72 19" version="1.1" xmlns="http://www.w3.org/2000/svg" xmlns:xlink="http://www.w3.org/1999/xlink" xml:space="preserve" xmlns:serif="http://www.serif.com/" style="fill-rule:evenodd;clip-rule:evenodd;stroke-linejoin:round;stroke-miterlimit:2;"><rect id="Artboard2" x="0" y="0" width="71.114" height="19" style="fill:none;"/><g><path d="M51.835,16.243l0.91,-0.778c0.98,1.147 2.51,1.82 4.136,1.841l0.077,0.001c1.63,-0 3.169,-0.656 4.167,-1.788l0.047,-0.054l0.91,0.778c-1.213,1.418 -3.108,2.261 -5.124,2.261l-0.094,-0.001c-1.98,-0.026 -3.835,-0.864 -5.029,-2.26Zm12.289,-1.85c0.137,0.103 0.286,0.188 0.444,0.255c1.067,0.449 2.298,-0.052 2.748,-1.12c0.449,-1.067 -0.052,-2.298 -1.12,-2.748c-1.068,-0.45 -2.298,0.051 -2.748,1.12l0.851,0.358c0.252,-0.598 0.941,-0.879 1.539,-0.627c0.598,0.252 0.879,0.941 0.627,1.539c-0.252,0.598 -0.941,0.879 -1.539,0.627c-0.088,-0.037 -0.172,-0.085 -0.249,-0.143l-0.553,0.739Zm-14.343,0c-0.137,0.103 -0.286,0.188 -0.444,0.255c-1.067,0.449 -2.299,-0.052 -2.748,-1.12c-0.45,-1.067 0.052,-2.298 1.119,-2.748c1.068,-0.45 2.299,0.051 2.749,1.12l-0.851,0.358c-0.252,-0.598 -0.941,-0.879 -1.539,-0.627c-0.598,0.252 -0.879,0.941 -0.627,1.539c0.251,0.598 0.941,0.879 1.539,0.627c0.088,-0.037 0.172,-0.085 0.248,-0.143l0.554,0.739Zm8.296,0.29c-1.13,-1.13 -1.13,-2.962 0,-4.093c1.13,-1.129 2.963,-1.129 4.093,0c1.13,1.131 1.13,2.963 -0,4.093l-0.901,-0.9c0.633,-0.633 0.633,-1.659 0,-2.292c-0.632,-0.633 -1.659,-0.633 -2.291,-0c-0.633,0.633 -0.633,1.659 -0,2.292l-0.901,0.9Zm-6.33,0c-1.13,-1.13 -1.13,-2.962 -0,-4.093c1.129,-1.129 2.963,-1.129 4.093,0c1.13,1.131 1.13,2.963 -0,4.093l-0.901,-0.9c0.633,-0.633 0.633,-1.659 0,-2.292c-0.632,-0.633 -1.659,-0.633 -2.292,-0c-0.633,0.633 -0.633,1.659 0,2.292l-0.9,0.9Zm8.376,-2.484c-0.341,-0 -0.618,0.277 -0.618,0.618c0,0.341 0.277,0.618 0.618,0.618c0.341,-0 0.618,-0.277 0.618,-0.618c0,-0.341 -0.277,-0.618 -0.618,-0.618Zm-6.33,-0c-0.341,-0 -0.618,0.277 -0.618,0.618c0,0.341 0.277,0.618 0.618,0.618c0.341,-0 0.618,-0.277 0.618,-0.618c-0,-0.341 -0.277,-0.618 -0.618,-0.618Zm4.04,-4.387c0,-0.104 0.085,-0.188 0.189,-0.188l0.377,-0c0.104,-0 0.188,0.084 0.188,0.188l0,1.031c0,0.104 -0.084,0.188 -0.188,0.188l-0.377,0c-0.104,0 -0.189,-0.084 -0.189,-0.188l0,-1.031Zm-1.252,0c0,-0.104 0.085,-0.188 0.189,-0.188l0.377,-0c0.104,-0 0.188,0.084 0.188,0.188l0,1.031c0,0.104 -0.084,0.188 -0.188,0.188l-0.377,0c-0.104,0 -0.189,-0.084 -0.189,-0.188l0,-1.031Zm-1.251,0c-0,-0.104 0.084,-0.188 0.188,-0.188l0.377,-0c0.104,-0 0.188,0.084 0.188,0.188l0,1.031c0,0.104 -0.084,0.188 -0.188,0.188l-0.377,0c-0.104,0 -0.188,-0.084 -0.188,-0.188l-0,-1.031Z" style="fill:#545454;"/><g><path d="M52.173,6.777l-1.543,-1.295c0.504,-0.578 0.627,-1.345 0.375,-2.159c-0.356,-1.15 -1.469,-1.839 -3.046,-1.351l-1.535,0.475l1.726,5.575l0.927,-0.286l-0.387,-1.249l0.608,-0.188c0.206,-0.064 0.39,-0.138 0.56,-0.227l1.257,1.033l1.058,-0.328Zm14.386,-4.646l-1.242,4.159l-1.156,-4.876l-1.103,-0.329l-1.67,5.592l0.93,0.278l1.217,-4.077l1.131,4.778l1.144,0.342l1.671,-5.592l-0.922,-0.275Zm-10.83,-1.635l-0.956,0.112l-0.915,2.91l-1.561,-2.621l-0.947,0.11l2.146,3.557l0.238,2.041l0.964,-0.113l-0.239,-2.04l1.27,-3.956Zm4.01,5.999l1.021,0.051l-1.772,-5.931l-1.005,-0.05l-2.399,5.725l1.03,0.051l0.334,-0.835l2.541,0.125l0.25,0.864Zm-11.285,-0.771l-0.867,-2.801l0.444,-0.137c1.356,-0.42 1.894,0.331 2.052,0.841c0.175,0.567 0.253,1.515 -0.955,1.889l-0.674,0.208Zm8.789,-0.96l1.157,-2.878l0.869,2.978l-2.026,-0.1Z" style="fill:#545454;fill-rule:nonzero;"/></g></g><text x="1.39px" y="11.216px" style="font-family:'Inter-Bold', 'Inter', sans-serif;font-weight:700;font-size:6.565px;fill:#545454;">De<tspan x="9.988px 13.715px " y="11.216px 11.216px ">ve</tspan>loped b<tspan x="41.273px " y="11.216px ">y</tspan></text></svg>