<?xml version="1.0" encoding="UTF-8" standalone="no"?><!DOCTYPE svg PUBLIC "-//W3C//DTD SVG 1.1//EN" "http://www.w3.org/Graphics/SVG/1.1/DTD/svg11.dtd"><svg width="100%" height="100%" viewBox="0 0 38 33" version="1.1" xmlns="http://www.w3.org/2000/svg" xmlns:xlink="http://www.w3.org/1999/xlink" xml:space="preserve" xmlns:serif="http://www.serif.com/" style="fill-rule:evenodd;clip-rule:evenodd;stroke-linejoin:round;stroke-miterlimit:2;"><rect x="0" y="0" width="38" height="33" style="fill:#fff;"/><g><g><path d="M10.801,11.99l15.922,-0c0.493,-0 0.877,3.817 0.877,4.31l-8.72,9.036l-8.079,-0c-0.492,-0.002 -0.896,-0.406 -0.897,-0.897l-0,-11.553c0.001,-0.491 0.405,-0.895 0.897,-0.896Z" style="fill:url(#_Linear1);fill-rule:nonzero;"/><path d="M26.703,11.99l-15.922,-0c-0.493,-0 -0.877,3.817 -0.877,4.31l8.719,9.036l8.08,-0c0.491,-0.002 0.895,-0.406 0.897,-0.897l-0,-11.553c-0.002,-0.491 -0.406,-0.895 -0.897,-0.896Z" style="fill:url(#_Linear2);fill-rule:nonzero;"/><path d="M13.939,14.308l5.062,-0l-0,-6.644l-4.304,0l-0.758,6.644Z" style="fill:#3f51b5;fill-rule:nonzero;"/><path d="M24.062,14.308l-5.061,-0l-0,-6.644l4.303,0l0.758,6.644Z" style="fill:#7babf7;fill-rule:nonzero;"/><path d="M27.609,8.924l0.007,0.022c-0.002,-0.008 -0.005,-0.015 -0.007,-0.022Z" style="fill:#7babf7;fill-rule:nonzero;"/><path d="M27.616,8.946l-0.007,-0.022c-0.159,-0.733 -0.813,-1.259 -1.563,-1.26l-2.742,0l0.758,6.644l5.061,-0l-1.507,-5.362Z" style="fill:#3f51b5;fill-rule:nonzero;"/><path d="M10.392,8.924l-0.007,0.022c0.002,-0.008 0.005,-0.015 0.007,-0.022Z" style="fill:#7babf7;fill-rule:nonzero;"/><path d="M10.385,8.946l0.007,-0.022c0.159,-0.733 0.813,-1.259 1.563,-1.26l2.742,0l-0.759,6.644l-5.061,-0l1.508,-5.362Z" style="fill:#7babf7;fill-rule:nonzero;"/><path d="M13.948,14.306c-0,1.387 -1.142,2.529 -2.53,2.529c-1.387,0 -2.529,-1.142 -2.529,-2.529l5.059,-0Z" style="fill:#709be0;fill-rule:nonzero;"/><path d="M19.006,14.306c0,1.387 -1.142,2.529 -2.529,2.529c-1.388,0 -2.529,-1.142 -2.529,-2.529l5.058,-0Z" style="fill:#3f51b5;fill-rule:nonzero;"/><path d="M24.065,14.306c-0,1.387 -1.142,2.529 -2.529,2.529c-1.388,0 -2.53,-1.142 -2.53,-2.529l5.059,-0Z" style="fill:#709be0;fill-rule:nonzero;"/><path d="M29.123,14.306l0,-0c0,1.387 -1.142,2.529 -2.529,2.529c-1.388,0 -2.53,-1.142 -2.53,-2.529l0,-0l5.059,-0Z" style="fill:#3f51b5;fill-rule:nonzero;"/><path d="M26.594,21.159c-0.009,-0.121 -0.024,-0.231 -0.045,-0.371l-2.759,-0c-0,0.386 -0,0.807 -0.002,1.193l1.599,-0c-0.069,0.363 -0.28,0.684 -0.585,0.892c-0.306,0.208 -0,-0.007 -0.002,-0.007c-0.195,0.129 -0.416,0.215 -0.647,0.253c-0.231,0.042 -0.468,0.041 -0.7,-0.003c-0.234,-0.049 -0.457,-0.145 -0.652,-0.283c-0.29,-0.205 -0.513,-0.49 -0.642,-0.82c-0.01,-0.026 -0.019,-0.052 -0.029,-0.078l0,-0.003l0.003,-0.002c-0.126,-0.369 -0.126,-0.769 -0.001,-1.139c0.088,-0.259 0.233,-0.495 0.424,-0.69c0.449,-0.464 1.121,-0.639 1.738,-0.453c0.237,0.073 0.454,0.2 0.632,0.372l0.54,-0.539c0.095,-0.096 0.194,-0.189 0.285,-0.288c-0.273,-0.255 -0.594,-0.454 -0.944,-0.585c-0.638,-0.231 -1.335,-0.237 -1.976,-0.018c-0.023,0.008 -0.045,0.016 -0.067,0.024c-0.691,0.26 -1.261,0.77 -1.595,1.43c-0.118,0.233 -0.204,0.481 -0.255,0.737c-0.304,1.51 0.629,3.015 2.116,3.414c0.489,0.131 1.009,0.128 1.501,0.016c0.448,-0.101 0.862,-0.316 1.202,-0.624c0.354,-0.327 0.609,-0.761 0.742,-1.223c0.111,-0.392 0.151,-0.8 0.119,-1.205Z" style="fill:#fff;fill-rule:nonzero;"/></g></g><defs><linearGradient id="_Linear1" x1="0" y1="0" x2="1" y2="0" gradientUnits="userSpaceOnUse" gradientTransform="matrix(-17.6957,0,0,17.6957,27.5997,18.6627)"><stop offset="0" style="stop-color:#4079d8;stop-opacity:1"/><stop offset="0.03" style="stop-color:#4079d8;stop-opacity:1"/><stop offset="1" style="stop-color:#4989f5;stop-opacity:1"/></linearGradient><linearGradient id="_Linear2" x1="0" y1="0" x2="1" y2="0" gradientUnits="userSpaceOnUse" gradientTransform="matrix(17.6957,0,0,17.6957,9.90383,18.6627)"><stop offset="0" style="stop-color:#4079d8;stop-opacity:1"/><stop offset="0.03" style="stop-color:#4079d8;stop-opacity:1"/><stop offset="1" style="stop-color:#4989f5;stop-opacity:1"/></linearGradient></defs></svg>