<?xml version="1.0" encoding="UTF-8" standalone="no"?><!DOCTYPE svg PUBLIC "-//W3C//DTD SVG 1.1//EN" "http://www.w3.org/Graphics/SVG/1.1/DTD/svg11.dtd"><svg width="100%" height="100%" viewBox="0 0 38 33" version="1.1" xmlns="http://www.w3.org/2000/svg" xmlns:xlink="http://www.w3.org/1999/xlink" xml:space="preserve" xmlns:serif="http://www.serif.com/" style="fill-rule:evenodd;clip-rule:evenodd;stroke-linejoin:round;stroke-miterlimit:2;"><rect x="0" y="0" width="38" height="33" style="fill:#fff;"/><rect x="7.897" y="5.397" width="22.206" height="22.206" style="fill:none;"/><g><g><path d="M22.932,8.751l0,15.267c0,1.708 1.179,2.66 2.429,2.66c1.157,-0 2.429,-0.81 2.429,-2.66l-0,-15.151c-0,-1.566 -1.157,-2.545 -2.429,-2.545c-1.272,0 -2.429,1.079 -2.429,2.429Z" style="fill:#f9ab00;fill-rule:nonzero;"/></g><g><path d="M16.571,16.5l0,7.518c0,1.708 1.179,2.66 2.429,2.66c1.157,-0 2.429,-0.81 2.429,-2.66l-0,-7.402c-0,-1.566 -1.157,-2.545 -2.429,-2.545c-1.272,0 -2.429,1.079 -2.429,2.429Z" style="fill:#e37400;fill-rule:nonzero;"/></g><g><circle cx="12.639" cy="24.249" r="2.429" style="fill:#e37400;"/></g></g></svg>