<?xml version="1.0" encoding="UTF-8" standalone="no"?><!DOCTYPE svg PUBLIC "-//W3C//DTD SVG 1.1//EN" "http://www.w3.org/Graphics/SVG/1.1/DTD/svg11.dtd"><svg width="100%" height="100%" viewBox="0 0 38 33" version="1.1" xmlns="http://www.w3.org/2000/svg" xmlns:xlink="http://www.w3.org/1999/xlink" xml:space="preserve" xmlns:serif="http://www.serif.com/" style="fill-rule:evenodd;clip-rule:evenodd;stroke-linejoin:round;stroke-miterlimit:2;"><rect x="0" y="0" width="37.63" height="32.355" style="fill:#fff;"/><g><g><g><path d="M27.188,10.969c-0,-1.795 -1.458,-3.252 -3.252,-3.252l-10.418,-0c-1.795,-0 -3.252,1.457 -3.252,3.252l-0,10.417c-0,1.795 1.457,3.252 3.252,3.252l10.418,0c1.794,0 3.252,-1.457 3.252,-3.252l-0,-10.417Z" style="fill:#f26526;"/><path d="M25.462,24.638l-6.735,0l-0,-10.254c-0,-3.682 3.015,-6.667 6.735,-6.667c1.051,-0 1.902,0.842 1.902,1.882l-0,13.162c-0.004,1.037 -0.854,1.876 -1.902,1.877Z" style="fill:#d65a29;fill-rule:nonzero;"/><path d="M21.251,21.602l-1.694,1.587c-0.318,0.293 -0.817,0.284 -1.124,-0.02l-1.551,-1.564c-0.201,-0.2 -0.298,-0.483 -0.263,-0.765l1.365,-7.497c0.054,-0.301 0.322,-0.519 0.632,-0.515l1.031,0c0.314,-0.003 0.583,0.22 0.632,0.526l1.263,7.473c0.031,0.29 -0.077,0.577 -0.291,0.775Z" style="fill:#d65a29;fill-rule:nonzero;"/><path d="M20.895,21.423l-1.693,1.59c-0.318,0.293 -0.817,0.284 -1.124,-0.02l-1.547,-1.567c-0.201,-0.2 -0.299,-0.482 -0.265,-0.764l1.369,-7.496c0.054,-0.301 0.321,-0.518 0.631,-0.514l1.031,0c0.313,-0.003 0.582,0.22 0.631,0.525l1.262,7.473c0.029,0.289 -0.081,0.576 -0.295,0.773l-0,-0Z" style="fill:#ddd;fill-rule:nonzero;"/><path d="M19.961,13.357l-0.882,0l0.305,-0.681c0.005,-0.012 0.016,-0.02 0.028,-0.023c0.012,-0.002 0.025,0.001 0.034,0.009l0.282,0.237c0.042,0.035 0.076,0.081 0.097,0.133l0.136,0.325Z" style="fill:#ddd;fill-rule:nonzero;"/><path d="M20.729,21.249l-1.696,1.587c-0.318,0.293 -0.817,0.285 -1.125,-0.018l-1.553,-1.564c-0.202,-0.201 -0.3,-0.484 -0.265,-0.766l1.362,-7.496c0.053,-0.302 0.322,-0.52 0.633,-0.516l1.03,-0c0.315,-0.004 0.584,0.22 0.633,0.525l1.264,7.475c0.033,0.287 -0.072,0.574 -0.283,0.773Z" style="fill:#fff;fill-rule:nonzero;"/><path d="M20.457,9.656l-2.753,-0c-0.284,-0 -0.471,0.375 -0.35,0.701l0.488,1.317c0.102,0.259 0.34,0.433 0.612,0.449l1.269,0c0.277,-0.014 0.521,-0.194 0.622,-0.46l0.459,-1.314c0.122,-0.321 -0.066,-0.693 -0.347,-0.693l-0,-0Z" style="fill:#d65a29;fill-rule:nonzero;"/><path d="M20.106,9.479l-2.753,0c-0.284,0 -0.472,0.375 -0.352,0.702l0.488,1.319c0.104,0.257 0.341,0.431 0.612,0.447l1.267,0c0.277,-0.015 0.521,-0.195 0.622,-0.46l0.459,-1.314c0.127,-0.325 -0.061,-0.694 -0.343,-0.694Z" style="fill:#ddd;fill-rule:nonzero;"/><path d="M17.493,11.517l0.383,0.254l0.146,-0.353l-0.529,0.099Zm2.694,-1.805l-0.403,0l0.106,-0.387c0.003,-0.009 0.01,-0.017 0.02,-0.02c0.009,-0.003 0.019,-0.002 0.027,0.003l0.137,0.073l0.023,0.015c0.158,0.118 0.291,0.266 0.392,0.436l-0.302,-0.12Z" style="fill:#ddd;fill-rule:nonzero;"/><path d="M19.931,9.303l-2.754,0c-0.285,0 -0.473,0.375 -0.352,0.702l0.488,1.318c0.104,0.258 0.341,0.431 0.612,0.448l1.265,-0c0.278,-0.015 0.522,-0.195 0.624,-0.46l0.459,-1.314c0.126,-0.325 -0.061,-0.694 -0.342,-0.694Z" style="fill:#fff;fill-rule:nonzero;"/></g></g></g></svg>