<?xml version="1.0" encoding="UTF-8" standalone="no"?><!DOCTYPE svg PUBLIC "-//W3C//DTD SVG 1.1//EN" "http://www.w3.org/Graphics/SVG/1.1/DTD/svg11.dtd"><svg width="100%" height="100%" viewBox="0 0 38 33" version="1.1" xmlns="http://www.w3.org/2000/svg" xmlns:xlink="http://www.w3.org/1999/xlink" xml:space="preserve" xmlns:serif="http://www.serif.com/" style="fill-rule:evenodd;clip-rule:evenodd;stroke-linejoin:round;stroke-miterlimit:2;"><rect x="0" y="0" width="37.63" height="32.355" style="fill:#fff;"/><clipPath id="_clip1"><rect id="ZOHO" x="4.173" y="11.129" width="29.285" height="10.098"/></clipPath><g clip-path="url(#_clip1)"><g><g><g><path d="M33.457,13.285l-0,6.946l-0.959,0.936l-0,-6.793l0.959,-1.089" style="fill:#e79224;fill-rule:nonzero;"/></g><rect x="26.162" y="14.374" width="6.351" height="6.801" style="fill:url(#_Linear2);fill-rule:nonzero;"/><g><path d="M27.157,13.29l-0.995,1.084l6.351,0l0.944,-1.089l-6.3,0.005" style="fill:#fef26f;fill-rule:nonzero;"/></g><g><path d="M19.291,13.588l6.247,-0.869l-0.523,1.498l-5.918,0.939l0.025,-1.071l0.169,-0.497" style="fill:#91c9ed;fill-rule:nonzero;"/></g><path d="M25.015,14.217l0.866,6.093l-6.16,0.865l-0.832,-5.89l0.36,-0.281l5.767,-0.787" style="fill:url(#_Linear3);fill-rule:nonzero;"/><g><path d="M25.538,12.719l0.005,0.037l0.81,6.238l-0.472,1.316l-0.865,-6.093" style="fill:#0b9ad6;fill-rule:nonzero;"/></g><g><clipPath id="_clip4"><path d="M14.015,13.068l5.53,2.495l-2.495,5.666l-5.531,-2.496l2.496,-5.665"/></clipPath><g clip-path="url(#_clip4)"><rect x="4.173" y="11.129" width="29.284" height="10.098" style="fill:url(#_Linear5);fill-rule:nonzero;"/></g></g><g><path d="M13.44,11.129l0.574,1.939l5.531,2.495l-0.465,-1.853l-5.64,-2.581" style="fill:#98d0a0;fill-rule:nonzero;"/></g><g><path d="M13.44,11.129l-2.226,5.283l0.305,2.321l2.495,-5.665l-0.574,-1.939" style="fill:#68bf6b;fill-rule:nonzero;"/></g><path d="M10.355,14.208l0.911,5.996l-6.112,0.958l-0.982,-6.007l6.183,-0.947" style="fill:url(#_Linear6);fill-rule:nonzero;"/><g><path d="M4.173,15.155l0.429,-2.141l6.171,-0.989l-0.418,2.183l-6.182,0.947" style="fill:#ef463d;fill-rule:nonzero;"/></g><g><path d="M10.773,12.025l0.905,6.053l-0.412,2.125l-0.911,-5.995l0.418,-2.183" style="fill:#761116;fill-rule:nonzero;"/></g><g><path d="M23.968,15.384c-0.028,-0.189 -0.093,-0.333 -0.198,-0.428c-0.083,-0.075 -0.188,-0.113 -0.307,-0.113c-0.03,-0 -0.062,0.002 -0.094,0.007c-0.16,0.023 -0.283,0.097 -0.358,0.219c-0.054,0.089 -0.081,0.195 -0.081,0.318c0,0.047 0.004,0.096 0.012,0.148l0.224,1.586l-1.771,0.26l-0.224,-1.585c-0.028,-0.185 -0.091,-0.328 -0.195,-0.425c-0.083,-0.079 -0.187,-0.119 -0.304,-0.119c-0.028,0 -0.057,0.003 -0.086,0.007c-0.166,0.024 -0.293,0.097 -0.37,0.217c-0.056,0.087 -0.083,0.194 -0.083,0.319c-0,0.047 0.004,0.098 0.012,0.151l0.606,4.123c0.027,0.19 0.094,0.334 0.203,0.427c0.085,0.073 0.191,0.109 0.313,0.109c0.034,0 0.068,-0.002 0.104,-0.008c0.153,-0.022 0.27,-0.096 0.341,-0.218c0.051,-0.087 0.076,-0.191 0.076,-0.31c0,-0.048 -0.004,-0.098 -0.012,-0.151l-0.247,-1.629l1.771,-0.26l0.248,1.629c0.027,0.187 0.093,0.33 0.2,0.425c0.085,0.075 0.191,0.113 0.311,0.112c0.03,0 0.062,-0.002 0.094,-0.007c0.16,-0.023 0.282,-0.096 0.355,-0.217c0.052,-0.087 0.077,-0.192 0.077,-0.313c0,-0.047 -0.004,-0.098 -0.011,-0.151l-0.606,-4.123Zm-7.204,2.281c-0.208,0.491 -0.483,0.828 -0.824,1.014c-0.182,0.1 -0.369,0.15 -0.562,0.15c-0.168,-0 -0.342,-0.038 -0.52,-0.114c-0.388,-0.165 -0.629,-0.43 -0.733,-0.804c-0.035,-0.125 -0.052,-0.257 -0.052,-0.396c-0,-0.274 0.068,-0.576 0.207,-0.903c0.214,-0.503 0.492,-0.846 0.832,-1.033c0.182,-0.101 0.369,-0.15 0.563,-0.15c0.17,-0 0.346,0.038 0.528,0.115c0.384,0.163 0.623,0.429 0.725,0.805c0.034,0.123 0.05,0.252 0.05,0.388c0,0.281 -0.07,0.59 -0.214,0.928Zm0.606,-2.468c-0.217,-0.229 -0.481,-0.409 -0.791,-0.541c-0.307,-0.13 -0.618,-0.195 -0.931,-0.195l-0.014,-0c-0.318,0.002 -0.632,0.073 -0.942,0.212l0,-0.001c-0.324,0.142 -0.606,0.339 -0.846,0.593c-0.24,0.253 -0.435,0.558 -0.586,0.913c-0.148,0.351 -0.231,0.702 -0.246,1.053c-0.002,0.039 -0.003,0.079 -0.003,0.119c0,0.31 0.053,0.613 0.16,0.91c0.112,0.313 0.278,0.584 0.497,0.812c0.219,0.229 0.489,0.411 0.807,0.546l0,-0c0.305,0.129 0.615,0.194 0.928,0.194l0.008,-0c0.316,-0.002 0.63,-0.07 0.94,-0.203l0,0l0,0c0.326,-0.146 0.611,-0.346 0.853,-0.599c0.243,-0.253 0.439,-0.557 0.589,-0.91c0.149,-0.353 0.231,-0.705 0.244,-1.054c0.002,-0.034 0.002,-0.067 0.002,-0.101c0,-0.314 -0.055,-0.622 -0.166,-0.924c-0.118,-0.32 -0.286,-0.595 -0.503,-0.824Zm-7.672,4.052c-0.048,-0.058 -0.113,-0.1 -0.192,-0.128c-0.081,-0.028 -0.18,-0.042 -0.295,-0.042c-0.109,0 -0.234,0.012 -0.374,0.036l-1.614,0.276c0.017,-0.124 0.079,-0.288 0.188,-0.487c0.122,-0.223 0.301,-0.491 0.538,-0.803l-0,0c0.081,-0.108 0.143,-0.191 0.186,-0.249c0.031,-0.038 0.074,-0.094 0.129,-0.168c0.369,-0.484 0.598,-0.878 0.685,-1.188c0.05,-0.175 0.081,-0.352 0.092,-0.53c0.003,-0.049 0.004,-0.097 0.004,-0.145c0,-0.128 -0.01,-0.253 -0.031,-0.377c-0.019,-0.112 -0.047,-0.206 -0.084,-0.281c-0.038,-0.075 -0.085,-0.132 -0.143,-0.168c-0.066,-0.04 -0.158,-0.057 -0.279,-0.058c-0.1,0 -0.22,0.012 -0.36,0.036l-1.864,0.319c-0.226,0.039 -0.393,0.105 -0.499,0.206c-0.084,0.079 -0.128,0.182 -0.128,0.3c0,0.03 0.003,0.062 0.009,0.095c0.026,0.159 0.109,0.275 0.242,0.334c0.078,0.035 0.173,0.052 0.284,0.052c0.075,0 0.158,-0.008 0.249,-0.023l1.56,-0.263c0.003,0.027 0.005,0.055 0.005,0.082c-0,0.098 -0.017,0.193 -0.051,0.287c-0.046,0.129 -0.162,0.313 -0.346,0.548c-0.053,0.064 -0.133,0.164 -0.241,0.299c-0.42,0.51 -0.722,0.945 -0.904,1.306c-0,0 -0,0 -0,0c-0,0 -0,0.001 -0,0.001c-0.13,0.248 -0.22,0.494 -0.269,0.735c-0.029,0.141 -0.043,0.276 -0.043,0.405c-0,0.093 0.007,0.183 0.022,0.27c0.022,0.125 0.052,0.228 0.094,0.309c0.041,0.081 0.094,0.142 0.16,0.178c0.06,0.033 0.15,0.046 0.273,0.047c0.156,-0 0.366,-0.023 0.632,-0.069l1.692,-0.289c0.3,-0.052 0.508,-0.123 0.629,-0.223c0.097,-0.079 0.147,-0.188 0.146,-0.317c0,-0.032 -0.003,-0.066 -0.009,-0.101c-0.014,-0.083 -0.045,-0.155 -0.093,-0.212Zm-1.434,-1.565l0,-0c0,-0 0,-0 0,-0l0,-0Zm21.974,1.378c-0.243,0.294 -0.571,0.44 -0.994,0.44c-0.425,-0 -0.755,-0.145 -0.999,-0.438c-0.244,-0.293 -0.368,-0.695 -0.368,-1.212c0,-0.527 0.123,-0.935 0.366,-1.23c0.243,-0.295 0.573,-0.442 1.001,-0.442c0.423,0 0.751,0.146 0.994,0.442c0.243,0.295 0.366,0.703 0.366,1.23c0,0.514 -0.123,0.916 -0.366,1.21Zm1.306,-2.241c-0.126,-0.316 -0.312,-0.599 -0.558,-0.849c-0.236,-0.24 -0.5,-0.421 -0.793,-0.543c-0.292,-0.122 -0.608,-0.182 -0.948,-0.182c-0.342,-0 -0.662,0.06 -0.956,0.182c-0.295,0.122 -0.56,0.303 -0.793,0.543c-0.246,0.248 -0.431,0.53 -0.554,0.845c-0.123,0.316 -0.185,0.661 -0.185,1.034c0,0.368 0.062,0.711 0.187,1.029c0.124,0.318 0.309,0.604 0.552,0.856c0.228,0.236 0.49,0.414 0.784,0.535c0.293,0.12 0.615,0.18 0.965,0.18c0.337,0 0.653,-0.06 0.946,-0.18c0.294,-0.121 0.559,-0.299 0.795,-0.535c0.246,-0.252 0.432,-0.537 0.558,-0.854c0.125,-0.317 0.188,-0.661 0.188,-1.031c0,-0.371 -0.063,-0.714 -0.188,-1.03" style="fill:#fff;fill-rule:nonzero;"/></g></g></g></g><defs><linearGradient id="_Linear2" x1="0" y1="0" x2="1" y2="0" gradientUnits="userSpaceOnUse" gradientTransform="matrix(-2.76872e-07,6.49857,6.49857,2.76872e-07,20.4997,14.4684)"><stop offset="0" style="stop-color:#ffe500;stop-opacity:1"/><stop offset="1" style="stop-color:#fcb822;stop-opacity:1"/></linearGradient><linearGradient id="_Linear3" x1="0" y1="0" x2="1" y2="0" gradientUnits="userSpaceOnUse" gradientTransform="matrix(6.37121,5.11659,5.11659,-6.37121,12.2615,23.8016)"><stop offset="0" style="stop-color:#168ccc;stop-opacity:1"/><stop offset="1" style="stop-color:#00649e;stop-opacity:1"/></linearGradient><linearGradient id="_Linear5" x1="0" y1="0" x2="1" y2="0" gradientUnits="userSpaceOnUse" gradientTransform="matrix(-2.37318e-07,5.69327,5.69327,2.37318e-07,15.1902,15.3346)"><stop offset="0" style="stop-color:#25a149;stop-opacity:1"/><stop offset="1" style="stop-color:#008a52;stop-opacity:1"/></linearGradient><linearGradient id="_Linear6" x1="0" y1="0" x2="1" y2="0" gradientUnits="userSpaceOnUse" gradientTransform="matrix(0.979097,5.91081,5.91081,-0.979097,-2.71635,16.432)"><stop offset="0" style="stop-color:#d92231;stop-opacity:1"/><stop offset="1" style="stop-color:#ba2234;stop-opacity:1"/></linearGradient></defs></svg>