<svg version="1" xmlns="http://www.w3.org/2000/svg" width="346.667" height="346.667" viewBox="0 0 260.000000 260.000000"><path d="M7.9 42.8c-1.3.2-1.5 11-1.5 86.7 0 47.6.3 86.2.7 85.8 1-1 19.4-34.7 28.4-51.8l4.1-8-.1-35.8c0-19.6.2-35.8.5-35.8 1.4-.4 39-.4 39-.1 0 .2-5.6 10.8-12.6 23.4l-12.5 22.9 3.2 5.7c1.8 3.1 4 7.1 4.9 8.7 1 1.7 3.6 6.6 6 11 2.3 4.4 5.5 10.2 7 13 5.5 9.9 8.3 15.1 12.3 22.5 2.2 4.1 5.4 10 7.1 13 1.7 3 4 7.2 5.1 9.3 1.2 2.3 2.7 3.7 4 3.8 7.9.3 37.6.1 38-.3.3-.2-10.1-19.9-23.1-43.6L94.8 130l10-18.2c5.5-10.1 11.1-20.3 12.4-22.8 1.4-2.5 6.9-12.6 12.3-22.5 5.3-9.9 10.1-18.5 10.5-19 .5-.6 1-1.9 1.2-2.9.3-1.9-1.4-1.9-65.8-2-36.3-.1-66.7 0-67.5.2z"/><path d="M158.8 42.8c-1 .2-7.7 11.4-15.9 26.5-7.8 14.4-15 27.5-15.9 29.2-16.2 29.2-17.3 31.7-15.8 34.4.9 1.4 3.5 6.2 5.8 10.6 2.4 4.4 9 16.5 14.7 26.8 5.6 10.4 10.3 19 10.3 19.2 0 .4 8.1 14.5 8.4 14.5.1 0 .1-26.8.1-59.6 0-32.7.2-59.9.5-60.2.6-.9 39-1 39-.2 0 .3-5.6 10.8-12.4 23.3l-12.5 22.8 7.6 13.7c4.2 7.5 9 16.4 10.8 19.7 4.6 8.6 9.8 18.2 17.9 33 3.9 7.1 8 14.7 9.1 16.8 1.4 2.7 2.6 3.7 4.5 3.8 10.6.3 37.1.1 37.6-.3.3-.4-1.3-3.8-3.5-7.8-2.3-3.9-4.1-7.3-4.1-7.5 0-.2-1.7-3.4-3.8-7.2-3.9-6.8-8.2-14.6-14.2-25.8-1.8-3.3-7.2-13.3-12.2-22.2l-8.9-16.2 8.9-16.3c4.9-9 10.8-19.9 13.2-24.3 2.3-4.4 5.1-9.4 6-11 4.3-7.3 17.8-32.4 18.4-34.1.6-1.8-.9-1.9-45.7-1.9-25.5 0-47.1.1-47.9.3z"/></svg>