<?xml version="1.0" encoding="UTF-8" standalone="no"?><!DOCTYPE svg PUBLIC "-//W3C//DTD SVG 1.1//EN" "http://www.w3.org/Graphics/SVG/1.1/DTD/svg11.dtd"><svg width="100%" height="100%" viewBox="0 0 26 26" version="1.1" xmlns="http://www.w3.org/2000/svg" xmlns:xlink="http://www.w3.org/1999/xlink" xml:space="preserve" xmlns:serif="http://www.serif.com/" style="fill-rule:evenodd;clip-rule:evenodd;stroke-linejoin:round;stroke-miterlimit:2;"><path d="M12.775,0.621c-6.824,0 -12.357,5.535 -12.357,12.357c0,6.826 5.533,12.357 12.357,12.357c6.824,0 12.357,-5.531 12.357,-12.357c0,-6.822 -5.533,-12.357 -12.357,-12.357Zm0,22.322c-5.508,0 -9.966,-4.456 -9.966,-9.965c0,-5.506 4.459,-9.966 9.966,-9.966c5.505,0 9.965,4.458 9.965,9.966c0,5.507 -4.456,9.965 -9.965,9.965Zm2.093,-5.182c0,1.154 -0.939,2.093 -2.093,2.093c-1.154,0 -2.093,-0.939 -2.093,-2.093c0,-1.154 0.939,-2.092 2.093,-2.092c1.154,0 2.093,0.938 2.093,2.092Zm-4.055,-10.533l0.339,6.776c0.016,0.318 0.279,0.568 0.597,0.568l2.052,0c0.318,0 0.581,-0.25 0.597,-0.568l0.339,-6.776c0.017,-0.342 -0.256,-0.628 -0.598,-0.628l-2.729,0c-0.342,0 -0.614,0.286 -0.597,0.628Z" style="fill:#c13639;fill-rule:nonzero;"/></svg>