<?xml version="1.0" encoding="UTF-8" standalone="no"?><!DOCTYPE svg PUBLIC "-//W3C//DTD SVG 1.1//EN" "http://www.w3.org/Graphics/SVG/1.1/DTD/svg11.dtd"><svg width="100%" height="100%" viewBox="0 0 26 21" version="1.1" xmlns="http://www.w3.org/2000/svg" xmlns:xlink="http://www.w3.org/1999/xlink" xml:space="preserve" xmlns:serif="http://www.serif.com/" style="fill-rule:evenodd;clip-rule:evenodd;stroke-linejoin:round;stroke-miterlimit:2;"><path d="M10.284,13.527l-0.001,0c0,-0.645 0.054,-0.348 -3.39,-7.236c-0.703,-1.406 -2.718,-1.409 -3.423,0c-3.473,6.947 -3.39,6.611 -3.39,7.236l0,0c0,1.761 2.284,3.189 5.102,3.189c2.818,0 5.102,-1.428 5.102,-3.189Zm-5.102,-6.378l2.87,5.74l-5.74,0l2.87,-5.74Zm20.409,6.378c0,-0.645 0.053,-0.348 -3.391,-7.236c-0.703,-1.406 -2.718,-1.409 -3.423,0c-3.472,6.947 -3.39,6.611 -3.39,7.236l0,0c0,1.761 2.284,3.189 5.102,3.189c2.818,0 5.102,-1.428 5.102,-3.189l0,0Zm-7.972,-0.638l2.87,-5.74l2.87,5.74l-5.74,0Zm3.508,5.102l-7.016,0l0,-11.749c0.937,-0.41 1.641,-1.255 1.849,-2.282l5.167,0c0.352,0 0.638,-0.286 0.638,-0.638l0,-1.276c0,-0.352 -0.286,-0.637 -0.638,-0.637l-5.755,0c-0.582,-0.77 -1.497,-1.276 -2.537,-1.276c-1.04,0 -1.954,0.506 -2.536,1.276l-5.755,0c-0.352,0 -0.638,0.285 -0.638,0.637l0,1.276c0,0.352 0.286,0.638 0.638,0.638l5.167,0c0.208,1.027 0.911,1.872 1.849,2.282l0,11.749l-7.016,0c-0.352,0 -0.638,0.286 -0.638,0.638l0,1.276c0,0.352 0.286,0.638 0.638,0.638l16.583,0c0.352,0 0.638,-0.286 0.638,-0.638l0,-1.276c0,-0.352 -0.286,-0.638 -0.638,-0.638Z" style="fill:#c13639;fill-rule:nonzero;"/></svg>