<?xml version="1.0" encoding="UTF-8" standalone="no"?><!DOCTYPE svg PUBLIC "-//W3C//DTD SVG 1.1//EN" "http://www.w3.org/Graphics/SVG/1.1/DTD/svg11.dtd"><svg width="100%" height="100%" viewBox="0 0 28 25" version="1.1" xmlns="http://www.w3.org/2000/svg" xmlns:xlink="http://www.w3.org/1999/xlink" xml:space="preserve" xmlns:serif="http://www.serif.com/" style="fill-rule:evenodd;clip-rule:evenodd;stroke-linejoin:round;stroke-miterlimit:2;"><clipPath id="_clip1"><rect id="diamond" x="0.056" y="0.231" width="27.06" height="24.053"/></clipPath><g clip-path="url(#_clip1)"><path d="M21.841,0.231l-16.509,0c-0.197,0 -0.38,0.103 -0.484,0.273l-4.712,7.648c-0.127,0.207 -0.103,0.474 0.057,0.658l12.966,15.277c0.225,0.263 0.629,0.263 0.855,0l12.966,-15.277c0.16,-0.184 0.179,-0.451 0.057,-0.658l-4.712,-7.648c-0.104,-0.17 -0.287,-0.273 -0.484,-0.273Zm-0.639,1.691l3.49,5.826l-3.899,0l-2.668,-5.826l3.077,0Zm-4.938,0l2.669,5.826l-10.698,0l2.674,-5.826l5.355,0Zm-10.293,0l3.077,0l-2.668,5.826l-3.9,0l3.491,-5.826Zm-3.04,7.329l3.43,0l3.843,9.02l-7.273,-9.02Zm5.262,0l10.782,0l-5.389,12.393l-5.393,-12.393Zm8.776,9.02l3.843,-9.02l3.429,0l-7.272,9.02Z" style="fill:#c13639;fill-rule:nonzero;"/></g></svg>