<?xml version="1.0" encoding="UTF-8" standalone="no"?><!DOCTYPE svg PUBLIC "-//W3C//DTD SVG 1.1//EN" "http://www.w3.org/Graphics/SVG/1.1/DTD/svg11.dtd"><svg width="100%" height="100%" viewBox="0 0 26 26" version="1.1" xmlns="http://www.w3.org/2000/svg" xmlns:xlink="http://www.w3.org/1999/xlink" xml:space="preserve" xmlns:serif="http://www.serif.com/" style="fill-rule:evenodd;clip-rule:evenodd;stroke-linejoin:round;stroke-miterlimit:2;"><clipPath id="_clip1"><rect id="gavel" x="0.02" y="0.194" width="25.569" height="25.569"/></clipPath><g clip-path="url(#_clip1)"><path d="M25.034,9.51l-1.03,-1.031c-0.645,-0.645 -1.619,-0.716 -2.334,-0.272l-4.095,-4.095c0.444,-0.714 0.373,-1.688 -0.272,-2.333l-1.031,-1.031c-0.739,-0.739 -1.936,-0.739 -2.676,0l-5.67,5.67c-0.737,0.737 -0.737,1.938 0,2.676l1.031,1.031c0.632,0.632 1.604,0.723 2.334,0.271l1.482,1.483l-2.936,2.937l-0.404,-0.404c-0.845,-0.846 -2.221,-0.845 -3.067,0l-5.712,5.711c-0.845,0.845 -0.845,2.221 0,3.067l1.939,1.938c0.845,0.846 2.221,0.846 3.067,0l5.71,-5.712c0.846,-0.845 0.846,-2.221 0,-3.067l-0.403,-0.403l2.936,-2.937l1.483,1.483c-0.451,0.729 -0.36,1.701 0.272,2.333l1.031,1.031c0.738,0.738 1.938,0.738 2.676,0l5.669,-5.67c0.74,-0.739 0.74,-1.936 0,-2.676Zm-14.794,8.776l-5.71,5.711c-0.223,0.223 -0.585,0.222 -0.807,0l0,0l-1.938,-1.937c-0.222,-0.223 -0.222,-0.585 0,-0.807l5.711,-5.711c0.223,-0.222 0.585,-0.223 0.807,0l1.937,1.937c0.223,0.223 0.223,0.585 0,0.807Zm13.665,-7.23l-5.67,5.67c-0.114,0.114 -0.302,0.114 -0.416,0l-1.031,-1.031c-0.114,-0.114 -0.114,-0.302 0,-0.416l0.823,-0.823l-6.285,-6.284l-0.823,0.823c-0.114,0.114 -0.302,0.114 -0.416,0l-1.031,-1.031c-0.114,-0.114 -0.114,-0.302 0,-0.416l5.67,-5.67c0.114,-0.114 0.302,-0.114 0.416,0l1.031,1.031c0.055,0.055 0.086,0.13 0.086,0.208c0,0.078 -0.031,0.153 -0.086,0.208l-0.822,0.823l6.284,6.284l0.823,-0.823c0.055,-0.055 0.13,-0.086 0.208,-0.086c0.078,0 0.153,0.031 0.208,0.086l1.031,1.031l0,0c0.055,0.055 0.086,0.13 0.086,0.208c0,0.078 -0.031,0.153 -0.086,0.208Z" style="fill:#c13639;fill-rule:nonzero;"/><path d="M25.034,9.51l-1.03,-1.031c-0.645,-0.645 -1.619,-0.716 -2.334,-0.272l-4.095,-4.095c0.444,-0.714 0.373,-1.688 -0.272,-2.333l-1.031,-1.031c-0.739,-0.739 -1.936,-0.739 -2.676,0l-5.67,5.67c-0.737,0.737 -0.737,1.938 0,2.676l1.031,1.031c0.632,0.632 1.604,0.723 2.334,0.271l1.482,1.483l-2.936,2.937l-0.404,-0.404c-0.845,-0.846 -2.221,-0.845 -3.067,0l-5.712,5.711c-0.845,0.845 -0.845,2.221 0,3.067l1.939,1.938c0.845,0.846 2.221,0.846 3.067,0l5.71,-5.712c0.846,-0.845 0.846,-2.221 0,-3.067l-0.403,-0.403l2.936,-2.937l1.483,1.483c-0.451,0.729 -0.36,1.701 0.272,2.333l1.031,1.031c0.738,0.738 1.938,0.738 2.676,0l5.669,-5.67c0.74,-0.739 0.74,-1.936 0,-2.676Zm-14.794,8.776l-5.71,5.711c-0.223,0.223 -0.585,0.222 -0.807,0l-1.938,-1.937c-0.222,-0.223 -0.222,-0.585 0,-0.807l5.711,-5.711c0.223,-0.222 0.585,-0.223 0.807,0l1.937,1.937c0.223,0.223 0.223,0.585 0,0.807Zm13.665,-7.23l-5.67,5.67c-0.114,0.114 -0.302,0.114 -0.416,0l-1.031,-1.031c-0.114,-0.114 -0.114,-0.302 0,-0.416l0.823,-0.823l-6.285,-6.284l-0.823,0.823c-0.114,0.114 -0.302,0.114 -0.416,0l-1.031,-1.031c-0.114,-0.114 -0.114,-0.302 0,-0.416l5.67,-5.67c0.114,-0.114 0.302,-0.114 0.416,0l1.031,1.031c0.055,0.055 0.086,0.13 0.086,0.208c0,0.078 -0.031,0.153 -0.086,0.208l-0.822,0.823l6.284,6.284l0.823,-0.823c0.055,-0.055 0.13,-0.086 0.208,-0.086c0.078,0 0.153,0.031 0.208,0.086l1.031,1.031c0.055,0.055 0.086,0.13 0.086,0.208c0,0.078 -0.031,0.153 -0.086,0.208Zm-2.407,2.943l-0.321,0l0,0.327c0.145,0.048 0.294,0.09 0.444,0.123l-0.021,-0.095c-0.019,-0.074 -0.039,-0.148 -0.059,-0.222l-0.043,-0.133Zm-10.165,-9.838c0.034,0.15 0.075,0.299 0.124,0.444l0.327,0l0,-0.322l-0.136,-0.043c-0.074,-0.02 -0.148,-0.04 -0.222,-0.059l-0.093,-0.02Z" style="fill:#c13639;"/></g></svg>