<?xml version="1.0" encoding="UTF-8" standalone="no"?><!DOCTYPE svg PUBLIC "-//W3C//DTD SVG 1.1//EN" "http://www.w3.org/Graphics/SVG/1.1/DTD/svg11.dtd"><svg width="100%" height="100%" viewBox="0 0 188 38" version="1.1" xmlns="http://www.w3.org/2000/svg" xmlns:xlink="http://www.w3.org/1999/xlink" xml:space="preserve" xmlns:serif="http://www.serif.com/" style="fill-rule:evenodd;clip-rule:evenodd;stroke-linejoin:round;stroke-miterlimit:2;"><path d="M2.353,33.897l2.558,0l-1.253,-3.193l-1.305,3.193Zm-1.879,3.062l3.229,-7.634l3.09,7.634l-0.728,0l-0.938,-2.486l-3,0l-0.973,2.486l-0.68,0Zm11.173,-0.576l0.939,0c0.758,0 1.298,-0.043 1.614,-0.128c0.318,-0.086 0.588,-0.229 0.808,-0.434c0.308,-0.288 0.539,-0.645 0.697,-1.073c0.158,-0.428 0.236,-0.916 0.236,-1.466c0,-0.561 -0.078,-1.057 -0.237,-1.485c-0.16,-0.428 -0.394,-0.779 -0.706,-1.053c-0.234,-0.21 -0.521,-0.36 -0.858,-0.447c-0.337,-0.087 -0.928,-0.129 -1.771,-0.129l-0.722,0l0,6.215Zm-0.667,0.576l0,-7.346l1.142,0c1.021,0 1.745,0.049 2.172,0.15c0.429,0.1 0.796,0.272 1.103,0.518c0.408,0.322 0.72,0.741 0.933,1.253c0.214,0.512 0.32,1.098 0.32,1.757c0,0.659 -0.106,1.246 -0.32,1.758c-0.213,0.514 -0.523,0.925 -0.922,1.232c-0.318,0.244 -0.68,0.419 -1.089,0.521c-0.407,0.105 -1.064,0.157 -1.97,0.157l-1.369,0Zm12.212,0.287l-2.877,-7.633l0.769,0l2.118,5.981l2.226,-5.981l0.733,0l-2.969,7.633Zm10.547,-0.688c0.434,0 0.846,-0.081 1.235,-0.241c0.386,-0.16 0.738,-0.395 1.047,-0.703c0.305,-0.312 0.539,-0.665 0.701,-1.062c0.162,-0.395 0.243,-0.812 0.243,-1.251c0,-0.442 -0.081,-0.86 -0.242,-1.252c-0.158,-0.393 -0.393,-0.746 -0.702,-1.061c-0.304,-0.309 -0.65,-0.544 -1.041,-0.702c-0.389,-0.16 -0.803,-0.241 -1.241,-0.241c-0.435,0 -0.844,0.081 -1.229,0.241c-0.384,0.158 -0.734,0.393 -1.043,0.702c-0.308,0.319 -0.543,0.671 -0.702,1.061c-0.161,0.389 -0.242,0.807 -0.242,1.252c0,0.442 0.081,0.86 0.242,1.251c0.159,0.395 0.394,0.748 0.702,1.062c0.308,0.312 0.653,0.547 1.032,0.707c0.383,0.159 0.794,0.237 1.24,0.237Zm3.935,-3.257c0,0.519 -0.1,1.01 -0.296,1.478c-0.197,0.465 -0.482,0.882 -0.853,1.247c-0.378,0.368 -0.805,0.646 -1.281,0.84c-0.475,0.193 -0.976,0.288 -1.505,0.288c-0.529,0 -1.03,-0.095 -1.504,-0.288c-0.472,-0.194 -0.897,-0.472 -1.271,-0.84c-0.376,-0.372 -0.66,-0.79 -0.857,-1.253c-0.195,-0.463 -0.293,-0.953 -0.293,-1.472c0,-0.526 0.098,-1.02 0.293,-1.488c0.197,-0.465 0.481,-0.886 0.857,-1.257c0.367,-0.363 0.787,-0.64 1.259,-0.826c0.472,-0.187 0.977,-0.281 1.516,-0.281c0.543,0 1.049,0.094 1.524,0.284c0.473,0.188 0.893,0.462 1.262,0.823c0.375,0.371 0.659,0.792 0.857,1.257c0.195,0.468 0.292,0.962 0.292,1.488Zm10.74,-2.342c-0.365,-0.316 -0.738,-0.548 -1.118,-0.699c-0.382,-0.15 -0.783,-0.226 -1.205,-0.226c-0.949,0 -1.721,0.301 -2.314,0.903c-0.595,0.602 -0.891,1.385 -0.891,2.354c0,0.485 0.072,0.922 0.217,1.311c0.146,0.386 0.369,0.732 0.665,1.031c0.294,0.295 0.632,0.519 1.013,0.673c0.378,0.154 0.785,0.231 1.219,0.231c0.423,0 0.833,-0.072 1.234,-0.215c0.401,-0.143 0.78,-0.357 1.139,-0.637l0,0.782c-0.362,0.221 -0.744,0.391 -1.146,0.509c-0.404,0.118 -0.803,0.178 -1.197,0.178c-0.533,0 -1.041,-0.095 -1.526,-0.287c-0.484,-0.189 -0.901,-0.459 -1.249,-0.803c-0.357,-0.354 -0.627,-0.764 -0.812,-1.233c-0.183,-0.468 -0.276,-0.982 -0.276,-1.54c0,-0.548 0.094,-1.06 0.284,-1.534c0.188,-0.477 0.461,-0.885 0.815,-1.229c0.345,-0.337 0.761,-0.604 1.246,-0.794c0.488,-0.19 0.993,-0.285 1.518,-0.285c0.468,0 0.902,0.065 1.303,0.193c0.398,0.128 0.763,0.32 1.091,0.579l-0.01,0.738Zm5.681,2.938l2.558,-0l-1.253,-3.193l-1.305,3.193Zm-1.878,3.062l3.227,-7.634l3.091,7.634l-0.727,-0l-0.939,-2.486l-3,-0l-0.973,2.486l-0.679,-0Zm16.222,-6c-0.365,-0.316 -0.738,-0.548 -1.118,-0.699c-0.382,-0.15 -0.783,-0.226 -1.204,-0.226c-0.95,-0 -1.721,0.301 -2.315,0.903c-0.594,0.602 -0.89,1.385 -0.89,2.354c0,0.485 0.071,0.922 0.217,1.311c0.145,0.386 0.368,0.732 0.664,1.031c0.295,0.295 0.632,0.519 1.013,0.673c0.377,0.154 0.786,0.231 1.22,0.231c0.422,-0 0.832,-0.072 1.233,-0.215c0.401,-0.143 0.782,-0.357 1.139,-0.637l0,0.782c-0.361,0.221 -0.744,0.391 -1.146,0.509c-0.403,0.118 -0.803,0.178 -1.197,0.178c-0.532,0 -1.041,-0.095 -1.525,-0.287c-0.485,-0.189 -0.902,-0.459 -1.249,-0.803c-0.357,-0.354 -0.628,-0.764 -0.813,-1.233c-0.183,-0.468 -0.276,-0.982 -0.276,-1.54c0,-0.548 0.094,-1.06 0.284,-1.534c0.189,-0.477 0.461,-0.885 0.815,-1.229c0.345,-0.337 0.761,-0.604 1.247,-0.794c0.487,-0.19 0.993,-0.285 1.517,-0.285c0.47,0 0.903,0.065 1.303,0.193c0.399,0.128 0.764,0.32 1.092,0.579l-0.011,0.738Zm4.809,6l0,-7.346l0.668,-0l0,7.346l-0.668,-0Zm6.733,-3.062l2.559,-0l-1.254,-3.193l-1.305,3.193Zm-1.879,3.062l3.229,-7.634l3.09,7.634l-0.728,-0l-0.938,-2.486l-3,-0l-0.973,2.486l-0.68,-0Zm13.467,-0l0,-7.346l3.637,-0l0,0.627l-2.969,-0l0,2.3l2.969,-0l0,0.628l-2.969,-0l0,3.163l2.969,-0l0,0.628l-3.637,-0Zm12.467,-3.062l2.558,-0l-1.253,-3.193l-1.305,3.193Zm-1.878,3.062l3.227,-7.634l3.091,7.634l-0.727,-0l-0.939,-2.486l-3,-0l-0.973,2.486l-0.679,-0Zm9.939,-1.234l0.576,-0.307c0.105,0.361 0.291,0.642 0.553,0.84c0.264,0.201 0.578,0.3 0.947,0.3c0.464,-0 0.826,-0.137 1.088,-0.411c0.261,-0.275 0.391,-0.655 0.391,-1.141c0,-0.354 -0.088,-0.647 -0.264,-0.882c-0.174,-0.235 -0.552,-0.506 -1.13,-0.814c-0.74,-0.39 -1.232,-0.735 -1.476,-1.033c-0.244,-0.298 -0.366,-0.655 -0.366,-1.074c0,-0.521 0.176,-0.946 0.528,-1.274c0.353,-0.326 0.811,-0.491 1.373,-0.491c0.366,-0 0.686,0.077 0.958,0.234c0.272,0.155 0.494,0.387 0.665,0.698l-0.514,0.312c-0.106,-0.211 -0.258,-0.372 -0.454,-0.482c-0.195,-0.112 -0.426,-0.166 -0.695,-0.166c-0.361,-0 -0.647,0.106 -0.862,0.319c-0.213,0.212 -0.321,0.5 -0.321,0.861c0,0.514 0.424,0.994 1.274,1.439c0.153,0.08 0.27,0.143 0.351,0.186c0.625,0.345 1.043,0.669 1.253,0.975c0.211,0.308 0.317,0.705 0.317,1.192c0,0.66 -0.192,1.182 -0.577,1.569c-0.385,0.385 -0.909,0.579 -1.572,0.579c-0.48,-0 -0.893,-0.119 -1.236,-0.358c-0.345,-0.239 -0.613,-0.598 -0.807,-1.071Zm8.48,-0l0.575,-0.307c0.106,0.361 0.292,0.642 0.553,0.84c0.264,0.201 0.579,0.3 0.947,0.3c0.464,-0 0.828,-0.137 1.088,-0.411c0.261,-0.275 0.392,-0.655 0.392,-1.141c0,-0.354 -0.088,-0.647 -0.265,-0.882c-0.173,-0.235 -0.552,-0.506 -1.129,-0.814c-0.74,-0.39 -1.231,-0.735 -1.476,-1.033c-0.246,-0.298 -0.367,-0.655 -0.367,-1.074c0,-0.521 0.177,-0.946 0.53,-1.274c0.352,-0.326 0.81,-0.491 1.371,-0.491c0.367,-0 0.686,0.077 0.959,0.234c0.272,0.155 0.493,0.387 0.665,0.698l-0.514,0.312c-0.106,-0.211 -0.259,-0.372 -0.454,-0.482c-0.195,-0.112 -0.426,-0.166 -0.696,-0.166c-0.361,-0 -0.646,0.106 -0.861,0.319c-0.214,0.212 -0.321,0.5 -0.321,0.861c0,0.514 0.424,0.994 1.274,1.439c0.154,0.08 0.269,0.143 0.35,0.186c0.626,0.345 1.044,0.669 1.253,0.975c0.212,0.308 0.318,0.705 0.318,1.192c0,0.66 -0.193,1.182 -0.578,1.569c-0.385,0.385 -0.909,0.579 -1.571,0.579c-0.482,-0 -0.895,-0.119 -1.236,-0.358c-0.345,-0.239 -0.613,-0.598 -0.807,-1.071Zm9.045,1.234l0,-7.346l3.635,-0l0,0.627l-2.968,-0l0,2.3l2.968,-0l0,0.628l-2.968,-0l0,3.163l2.968,-0l0,0.628l-3.635,-0Zm8.069,-1.234l0.576,-0.307c0.105,0.361 0.291,0.642 0.552,0.84c0.264,0.201 0.579,0.3 0.947,0.3c0.464,-0 0.828,-0.137 1.088,-0.411c0.262,-0.275 0.392,-0.655 0.392,-1.141c0,-0.354 -0.088,-0.647 -0.263,-0.882c-0.175,-0.235 -0.554,-0.506 -1.131,-0.814c-0.739,-0.39 -1.23,-0.735 -1.476,-1.033c-0.246,-0.298 -0.366,-0.655 -0.366,-1.074c0,-0.521 0.176,-0.946 0.529,-1.274c0.352,-0.326 0.81,-0.491 1.371,-0.491c0.367,-0 0.687,0.077 0.959,0.234c0.272,0.155 0.494,0.387 0.665,0.698l-0.514,0.312c-0.106,-0.211 -0.259,-0.372 -0.454,-0.482c-0.195,-0.112 -0.426,-0.166 -0.695,-0.166c-0.361,-0 -0.647,0.106 -0.862,0.319c-0.214,0.212 -0.321,0.5 -0.321,0.861c0,0.514 0.425,0.994 1.274,1.439c0.154,0.08 0.27,0.143 0.351,0.186c0.625,0.345 1.043,0.669 1.253,0.975c0.211,0.308 0.317,0.705 0.317,1.192c0,0.66 -0.191,1.182 -0.577,1.569c-0.385,0.385 -0.91,0.579 -1.572,0.579c-0.482,-0 -0.893,-0.119 -1.236,-0.358c-0.345,-0.239 -0.613,-0.598 -0.807,-1.071Zm8.479,-0l0.575,-0.307c0.106,0.361 0.292,0.642 0.554,0.84c0.264,0.201 0.579,0.3 0.948,0.3c0.463,-0 0.827,-0.137 1.087,-0.411c0.261,-0.275 0.391,-0.655 0.391,-1.141c0,-0.354 -0.087,-0.647 -0.264,-0.882c-0.174,-0.235 -0.552,-0.506 -1.13,-0.814c-0.739,-0.39 -1.231,-0.735 -1.476,-1.033c-0.245,-0.298 -0.366,-0.655 -0.366,-1.074c0,-0.521 0.177,-0.946 0.53,-1.274c0.351,-0.326 0.809,-0.491 1.371,-0.491c0.366,-0 0.686,0.077 0.958,0.234c0.272,0.155 0.494,0.387 0.665,0.698l-0.513,0.312c-0.107,-0.211 -0.259,-0.372 -0.454,-0.482c-0.195,-0.112 -0.426,-0.166 -0.696,-0.166c-0.361,-0 -0.646,0.106 -0.861,0.319c-0.214,0.212 -0.322,0.5 -0.322,0.861c0,0.514 0.425,0.994 1.273,1.439c0.156,0.08 0.271,0.143 0.352,0.186c0.625,0.345 1.043,0.669 1.253,0.975c0.211,0.308 0.317,0.705 0.317,1.192c0,0.66 -0.192,1.182 -0.577,1.569c-0.385,0.385 -0.909,0.579 -1.572,0.579c-0.481,-0 -0.893,-0.119 -1.235,-0.358c-0.346,-0.239 -0.614,-0.598 -0.808,-1.071Zm12.62,0.833c0.436,-0 0.846,-0.081 1.235,-0.241c0.387,-0.16 0.738,-0.395 1.048,-0.703c0.304,-0.312 0.538,-0.665 0.7,-1.062c0.163,-0.395 0.244,-0.812 0.244,-1.251c0,-0.442 -0.081,-0.86 -0.242,-1.252c-0.159,-0.393 -0.394,-0.746 -0.702,-1.061c-0.305,-0.309 -0.651,-0.544 -1.04,-0.702c-0.389,-0.16 -0.804,-0.241 -1.243,-0.241c-0.435,-0 -0.844,0.081 -1.229,0.241c-0.384,0.158 -0.733,0.393 -1.043,0.702c-0.308,0.319 -0.543,0.671 -0.703,1.061c-0.16,0.389 -0.24,0.807 -0.24,1.252c0,0.442 0.08,0.86 0.24,1.251c0.16,0.395 0.395,0.748 0.703,1.062c0.308,0.312 0.653,0.547 1.032,0.707c0.383,0.159 0.795,0.237 1.24,0.237Zm3.936,-3.257c0,0.519 -0.1,1.01 -0.297,1.478c-0.197,0.465 -0.481,0.882 -0.853,1.247c-0.378,0.368 -0.804,0.646 -1.281,0.84c-0.473,0.193 -0.975,0.288 -1.505,0.288c-0.528,-0 -1.029,-0.095 -1.502,-0.288c-0.473,-0.194 -0.898,-0.472 -1.273,-0.84c-0.375,-0.372 -0.66,-0.79 -0.857,-1.253c-0.195,-0.463 -0.292,-0.953 -0.292,-1.472c0,-0.526 0.097,-1.02 0.292,-1.488c0.197,-0.465 0.482,-0.886 0.857,-1.257c0.367,-0.363 0.788,-0.64 1.261,-0.826c0.469,-0.187 0.975,-0.281 1.514,-0.281c0.543,-0 1.05,0.094 1.524,0.284c0.473,0.188 0.895,0.462 1.262,0.823c0.375,0.371 0.66,0.792 0.857,1.257c0.195,0.468 0.293,0.962 0.293,1.488Zm5.51,-3.102l0,2.711l0.672,-0c0.622,-0 1.055,-0.099 1.302,-0.297c0.244,-0.199 0.367,-0.538 0.367,-1.015c0,-0.506 -0.126,-0.866 -0.38,-1.08c-0.254,-0.213 -0.684,-0.319 -1.289,-0.319l-0.672,-0Zm3.788,6.76l-0.811,-0l-2.576,-3.503l-0.401,-0l0,3.503l-0.669,-0l0,-7.346l1.35,-0c0.796,-0 1.39,0.166 1.787,0.497c0.395,0.33 0.593,0.832 0.593,1.505c0,0.572 -0.169,1.019 -0.508,1.349c-0.339,0.327 -0.805,0.492 -1.4,0.492l2.635,3.503Zm4.329,-0l0,-7.346l0.668,-0l0,7.346l-0.668,-0Zm6.733,-3.062l2.558,-0l-1.254,-3.193l-1.304,3.193Zm-1.879,3.062l3.229,-7.634l3.09,7.634l-0.728,-0l-0.938,-2.486l-3,-0l-0.973,2.486l-0.68,-0Z" style="fill:#fff;fill-rule:nonzero;"/><text x="51.357px" y="23.809px" style="font-family:'ArialMT', 'Arial', sans-serif;font-size:31.207px;fill:#fff;">R &amp; R</text></svg>